<?xml version="1.0" encoding="UTF-8" standalone="no"?><!DOCTYPE svg PUBLIC "-//W3C//DTD SVG 1.1//EN" "http://www.w3.org/Graphics/SVG/1.1/DTD/svg11.dtd"><svg width="100%" height="100%" viewBox="0 0 759 192" version="1.1" xmlns="http://www.w3.org/2000/svg" xmlns:xlink="http://www.w3.org/1999/xlink" xml:space="preserve" xmlns:serif="http://www.serif.com/" style="fill-rule:evenodd;clip-rule:evenodd;"><rect id="nf-metro-logo-dark" x="0" y="1.555" width="754.603" height="187.5" style="fill:none;"/><clipPath id="_clip1"><rect x="0" y="1.555" width="754.603" height="187.5"/></clipPath><g clip-path="url(#_clip1)"><g><path d="M649.824,150.513l54.343,-0c3.449,-0 6.25,2.8 6.25,6.25c-0,3.449 -2.801,6.25 -6.25,6.25l-54.343,-0l-0,-12.5Z" style="fill:#31c9ac;"/><path d="M650.05,135.93l54.117,-0c3.449,-0 6.25,2.8 6.25,6.25c-0,3.449 -2.801,6.25 -6.25,6.25l-54.117,-0l-0,-12.5Z" style="fill:#0a967b;"/></g><g><path d="M84.58,54.68l-47.08,-0c-3.449,-0 -6.25,-2.801 -6.25,-6.25c0,-3.45 2.801,-6.25 6.25,-6.25l47.08,-0l-0,12.5Z" style="fill:#31c9ac;"/><path d="M84.58,40.096l-47.08,0c-3.449,0 -6.25,-2.8 -6.25,-6.25c-0,-3.449 2.801,-6.25 6.25,-6.25l47.08,0l-0,12.5Z" style="fill:#0a967b;"/></g><path d="M84.58,42.18l19.587,-0c19.243,-0 33.161,8.597 41.757,25.788l36,63.667c6.293,12.587 16.486,18.878 30.576,18.878l437.324,-0l-0,12.5l-437.324,-0c-19.243,-0 -33.161,-8.598 -41.757,-25.788l-36,-63.667c-6.293,-12.587 -16.486,-18.878 -30.576,-18.878l-19.587,-0l-0,-12.5Z" style="fill:#31c9ac;"/><path d="M84.58,27.596l444.587,0c19.243,0 33.161,8.598 41.757,25.789l36,63.666c6.293,12.587 16.486,18.879 30.576,18.879l12.55,-0l-0,12.5l-12.55,-0c-19.243,-0 -33.161,-8.598 -41.757,-25.789l-36,-63.666c-6.293,-12.587 -16.486,-18.879 -30.576,-18.879l-444.587,0l-0,-12.5Z" style="fill:#0a967b;"/><path d="M56.25,28.638l0,25c0,10.348 -8.402,18.75 -18.75,18.75c-10.348,-0 -18.75,-8.402 -18.75,-18.75l0,-25c0,-10.348 8.402,-18.75 18.75,-18.75c10.348,-0 18.75,8.402 18.75,18.75Z" style="fill:#201637;stroke:#fff;stroke-width:8.33px;"/><path d="M722.917,136.971l-0,25c-0,10.349 -8.402,18.75 -18.75,18.75c-10.349,0 -18.75,-8.401 -18.75,-18.75l-0,-25c-0,-10.348 8.401,-18.75 18.75,-18.75c10.348,0 18.75,8.402 18.75,18.75Z" style="fill:#201637;stroke:#fff;stroke-width:8.33px;"/><path d="M250.542,117.272l-7.917,-0l0,-22.542c0,-1.028 -0.222,-2 -0.667,-2.916c-0.444,-0.917 -1.069,-1.723 -1.875,-2.417c-0.777,-0.667 -1.694,-1.208 -2.75,-1.625c-1.055,-0.389 -2.194,-0.583 -3.416,-0.583c-2,-0 -3.848,0.319 -5.542,0.958c-1.694,0.639 -3.069,1.486 -4.125,2.542l0,26.583l-7.917,-0l0,-37.583l7.917,-0l0,2.291c1.417,-0.861 2.944,-1.528 4.583,-2c1.639,-0.472 3.361,-0.708 5.167,-0.708c2.222,-0 4.319,0.403 6.292,1.208c1.972,0.834 3.722,1.959 5.25,3.375c1.527,1.445 2.75,3.097 3.666,4.959c0.889,1.861 1.334,3.833 1.334,5.916l-0,22.542Zm30.875,-47.75c-1.473,-0.833 -2.834,-1.32 -4.084,-1.458c-1.25,-0.139 -2.472,-0.209 -3.666,-0.209c-1.5,0 -2.723,0.722 -3.667,2.167c-0.944,1.417 -1.417,3.125 -1.417,5.125l0,5.792l12.5,-0l0,8l-12.5,-0l0,28.166l-7.916,0l-0,-28.25l-6.334,0l0,-7.833l6.334,-0l-0,-7.458c-0,-1.834 0.347,-3.57 1.041,-5.209c0.667,-1.639 1.584,-3.069 2.75,-4.291c1.167,-1.223 2.528,-2.181 4.084,-2.875c1.555,-0.723 3.236,-1.084 5.041,-1.084c1.195,0 2.514,0.167 3.959,0.5c1.416,0.306 2.708,0.667 3.875,1.084l-0,7.833Zm28.083,30.333l-24.625,0l0,-8.708l24.625,-0l-0,8.708Zm65.958,17.417l-7.916,-0l-0,-22.333c-0,-1 -0.223,-1.959 -0.667,-2.875c-0.444,-0.917 -1.069,-1.723 -1.875,-2.417c-0.778,-0.695 -1.694,-1.236 -2.75,-1.625c-1.056,-0.389 -2.194,-0.583 -3.417,-0.583c-1.694,-0 -3.305,0.444 -4.833,1.333c-1.528,0.889 -2.903,2.097 -4.125,3.625l0,24.875l-7.917,-0l0,-22.333c0,-1 -0.222,-1.959 -0.666,-2.875c-0.445,-0.917 -1.056,-1.723 -1.834,-2.417c-0.805,-0.695 -1.736,-1.236 -2.791,-1.625c-1.056,-0.389 -2.195,-0.583 -3.417,-0.583c-1.778,-0 -3.417,0.291 -4.917,0.875c-1.527,0.555 -2.791,1.347 -3.791,2.375l-0,26.583l-8.042,-0l-0,-37.583l8.125,-0l-0,2.291c1.444,-0.861 2.972,-1.528 4.583,-2c1.639,-0.472 3.361,-0.708 5.167,-0.708c2.278,-0 4.417,0.528 6.417,1.583c2,1.056 3.736,2.431 5.208,4.125c2.111,-1.805 4.333,-3.208 6.667,-4.208c2.305,-1 4.736,-1.5 7.291,-1.5c2.056,-0 4.014,0.417 5.875,1.25c1.889,0.861 3.542,2 4.959,3.417c1.416,1.416 2.555,3.083 3.416,5c0.834,1.888 1.25,3.888 1.25,6l0,22.333Zm34.584,-25.417c-0,-0.833 -0.264,-1.653 -0.792,-2.458c-0.528,-0.778 -1.222,-1.458 -2.083,-2.042c-0.861,-0.583 -1.875,-1.055 -3.042,-1.416c-1.167,-0.389 -2.403,-0.584 -3.708,-0.584c-2.389,0 -4.528,0.625 -6.417,1.875c-1.917,1.25 -3.319,2.792 -4.208,4.625l20.25,0Zm9.041,7.625l-29.916,0c0.305,1.528 0.875,2.945 1.708,4.25c0.806,1.334 1.806,2.472 3,3.417c1.194,0.944 2.556,1.694 4.083,2.25c1.528,0.555 3.139,0.833 4.834,0.833c2.722,0 5.291,-0.444 7.708,-1.333c2.389,-0.917 4.431,-2.083 6.125,-3.5l-0,8.25c-2.167,1.361 -4.528,2.444 -7.083,3.25c-2.556,0.778 -5.209,1.167 -7.959,1.167c-2.861,-0 -5.541,-0.556 -8.041,-1.667c-2.5,-1.111 -4.681,-2.611 -6.542,-4.5c-1.833,-1.917 -3.292,-4.153 -4.375,-6.708c-1.083,-2.556 -1.625,-5.25 -1.625,-8.084c-0,-2.666 0.514,-5.153 1.542,-7.458c1.027,-2.333 2.43,-4.361 4.208,-6.083c1.75,-1.75 3.806,-3.139 6.167,-4.167c2.361,-1.028 4.875,-1.542 7.541,-1.542c2.556,0 5.042,0.389 7.459,1.167c2.416,0.805 4.527,2.069 6.333,3.792c1.806,1.75 3.167,4 4.083,6.75c0.917,2.75 1.167,6.055 0.75,9.916Zm35.375,-11.875l-15.916,0l-0,15.584c-0,2.055 0.527,3.736 1.583,5.041c1.056,1.334 2.375,2 3.958,2c1.389,0 2.875,-0.25 4.459,-0.75c1.583,-0.5 2.972,-1.208 4.166,-2.125l0,8c-1.194,0.861 -2.583,1.542 -4.166,2.042c-1.584,0.5 -3.07,0.75 -4.459,0.75c-1.889,-0 -3.652,-0.32 -5.291,-0.958c-1.639,-0.639 -3.07,-1.528 -4.292,-2.667c-1.194,-1.111 -2.139,-2.445 -2.833,-4c-0.695,-1.528 -1.042,-3.181 -1.042,-4.958l-0,-17.959l-7.833,0l-0,-7.916l7.833,-0l-0,-7.542l7.917,-0l-0,7.542l15.916,-0l0,7.916Zm28.834,3.625c-1.528,-1.583 -2.959,-2.528 -4.292,-2.833c-1.306,-0.333 -2.306,-0.5 -3,-0.5c-0.833,-0 -1.667,0.069 -2.5,0.208c-0.806,0.139 -1.611,0.403 -2.417,0.792c-0.777,0.389 -1.514,0.972 -2.208,1.75c-0.694,0.75 -1.333,1.764 -1.917,3.042l0,23.583l-7.833,-0l-0,-37.583l7.917,-0l-0,3.125c2.972,-2.362 5.986,-3.542 9.041,-3.542c1.361,-0 2.639,0.167 3.834,0.5c1.194,0.361 2.319,0.833 3.375,1.417l-0,10.041Zm34.125,7.292c-0,-1.528 -0.306,-2.986 -0.917,-4.375c-0.611,-1.361 -1.444,-2.556 -2.5,-3.583c-1.056,-1.028 -2.264,-1.848 -3.625,-2.459c-1.389,-0.611 -2.875,-0.916 -4.458,-0.916c-1.584,-0 -3.07,0.305 -4.459,0.916c-1.389,0.611 -2.597,1.431 -3.625,2.459c-1.055,1.027 -1.875,2.236 -2.458,3.625c-0.611,1.388 -0.917,2.861 -0.917,4.416c0,1.584 0.306,3.084 0.917,4.5c0.583,1.417 1.403,2.639 2.458,3.667c1.028,1.028 2.236,1.847 3.625,2.458c1.389,0.611 2.875,0.917 4.459,0.917c1.583,-0 3.069,-0.306 4.458,-0.917c1.361,-0.611 2.569,-1.444 3.625,-2.5c1.056,-1.055 1.889,-2.291 2.5,-3.708c0.611,-1.417 0.917,-2.917 0.917,-4.5Zm7.916,-0c0,2.694 -0.514,5.222 -1.541,7.583c-1.028,2.389 -2.431,4.459 -4.209,6.209c-1.777,1.777 -3.833,3.18 -6.166,4.208c-2.361,1.028 -4.861,1.542 -7.5,1.542c-2.695,-0 -5.209,-0.514 -7.542,-1.542c-2.361,-1.028 -4.403,-2.431 -6.125,-4.208c-1.75,-1.75 -3.139,-3.82 -4.167,-6.209c-1.027,-2.361 -1.541,-4.889 -1.541,-7.583c-0,-2.639 0.514,-5.125 1.541,-7.458c1.028,-2.306 2.431,-4.334 4.209,-6.084c1.75,-1.75 3.805,-3.139 6.166,-4.166c2.334,-1.028 4.848,-1.542 7.542,-1.542c2.639,-0 5.139,0.514 7.5,1.542c2.333,1.027 4.375,2.416 6.125,4.166c1.75,1.75 3.139,3.778 4.167,6.084c1.027,2.333 1.541,4.819 1.541,7.458Z" style="fill:#fff;fill-rule:nonzero;stroke:#000;stroke-opacity:0;stroke-width:4.17px;stroke-linejoin:round;stroke-miterlimit:2;"/></g></svg>